<svg width="328" height="328" viewBox="0 0 328 328" fill="none" xmlns="http://www.w3.org/2000/svg">
<rect width="328" height="328" fill="#E9E9E9"/>
<path d="M116.815 174.823L121.094 153.421L124.517 128.127L127.941 153.421L132.22 174.823H159.118L174.035 114.751H150.071L147.381 140.409L145.425 161.568L142.001 140.531L136.499 114.751H112.291L107.278 140.531L103.61 161.568L101.654 140.409L98.964 114.751H75L89.9163 174.823H116.815Z" fill="black"/>
<path d="M205.862 176.039C215.643 176.039 222.123 171.418 224.691 168.499L218.7 152.083C216.744 155.123 213.565 157.069 210.875 157.069C208.063 157.069 206.473 155.488 206.473 152.326V131.289H221.145V114.751H206.473V98.2131L184.465 107.941V114.751H175.907V131.289H184.465V155.488C184.465 167.162 190.212 176.039 205.862 176.039Z" fill="black"/>
<path d="M116.815 249L121.094 227.598L124.517 202.305L127.941 227.598L132.22 249H159.119L174.035 188.928H150.071L147.381 214.587L145.425 235.745L142.001 214.708L136.499 188.928H112.291L107.278 214.708L103.61 235.745L101.654 214.587L98.964 188.928H75.0001L89.9164 249H116.815Z" fill="black"/>
<path d="M198.837 249V218.721C198.837 208.993 203.483 204.25 208.495 204.25C212.041 204.25 213.508 206.561 213.508 209.966C213.508 213.614 211.063 218.235 208.862 220.788H229.036C230.748 217.748 233.193 211.546 233.193 204.25C233.193 194.279 229.281 187.712 218.766 187.712C206.417 187.712 200.671 198.9 198.837 209.236V188.928H176.829V249H198.837Z" fill="black"/>
<path d="M241.018 102.956C247.62 102.956 253 98.0916 253 90.917C253 83.8641 247.62 79 241.018 79C234.416 79 229.036 83.8641 229.036 90.917C229.036 98.0916 234.416 102.956 241.018 102.956ZM241.018 94.5651C239.062 94.5651 237.839 93.2275 237.839 90.917C237.839 88.6066 239.062 87.3906 241.018 87.3906C242.974 87.3906 244.197 88.6066 244.197 90.917C244.197 93.2275 242.974 94.5651 241.018 94.5651Z" fill="black"/>
</svg>
